ply
format ascii 1.0
comment Created by CloudCompare v2.11.3 (Anoia)
comment Created 16.09.2020 11:26
obj_info Generated by CloudCompare!
element vertex 4
property float x
property float y
property float z
property uchar red
property uchar green
property uchar blue
element face 2
property list uchar int vertex_indices
end_header
-125.368 -101.268 -34.4723 30 223 129 
-121.429 -26.5347 -129.629 30 223 129 
103.144 -38.3704 -129.629 30 223 129 
99.2053 -113.104 -34.4723 30 223 129 
3 0 2 1 
3 0 3 2 
